<svg width="16" height="16" viewBox="0 0 16 16" fill="none" xmlns="http://www.w3.org/2000/svg">
<path d="M1.90937 7C1.40625 7 1 6.59375 1 6.09062C1 6.03125 1.00625 5.975 1.01875 5.91563C1.18437 5.25938 2.4625 1 8 1C13.5375 1 14.8156 5.25938 14.9812 5.91563C14.9969 5.975 15 6.03125 15 6.09062C15 6.59375 14.5937 7 14.0906 7H1.90937ZM4.5 4C4.5 3.86739 4.44732 3.74021 4.35355 3.64645C4.25979 3.55268 4.13261 3.5 4 3.5C3.86739 3.5 3.74021 3.55268 3.64645 3.64645C3.55268 3.74021 3.5 3.86739 3.5 4C3.5 4.13261 3.55268 4.25979 3.64645 4.35355C3.74021 4.44732 3.86739 4.5 4 4.5C4.13261 4.5 4.25979 4.44732 4.35355 4.35355C4.44732 4.25979 4.5 4.13261 4.5 4ZM12 4.5C12.1326 4.5 12.2598 4.44732 12.3536 4.35355C12.4473 4.25979 12.5 4.13261 12.5 4C12.5 3.86739 12.4473 3.74021 12.3536 3.64645C12.2598 3.55268 12.1326 3.5 12 3.5C11.8674 3.5 11.7402 3.55268 11.6464 3.64645C11.5527 3.74021 11.5 3.86739 11.5 4C11.5 4.13261 11.5527 4.25979 11.6464 4.35355C11.7402 4.44732 11.8674 4.5 12 4.5ZM8.5 3C8.5 2.86739 8.44732 2.74021 8.35355 2.64645C8.25979 2.55268 8.13261 2.5 8 2.5C7.86739 2.5 7.74021 2.55268 7.64645 2.64645C7.55268 2.74021 7.5 2.86739 7.5 3C7.5 3.13261 7.55268 3.25979 7.64645 3.35355C7.74021 3.44732 7.86739 3.5 8 3.5C8.13261 3.5 8.25979 3.44732 8.35355 3.35355C8.44732 3.25979 8.5 3.13261 8.5 3ZM0.5 9.5C0.5 8.67188 1.17188 8 2 8H14C14.8281 8 15.5 8.67188 15.5 9.5C15.5 10.3281 14.8281 11 14 11H2C1.17188 11 0.5 10.3281 0.5 9.5ZM1 12.5C1 12.225 1.225 12 1.5 12H14.5C14.775 12 15 12.225 15 12.5V13C15 14.1031 14.1031 15 13 15H3C1.89688 15 1 14.1031 1 13V12.5Z" fill="#BABABA"/>
</svg>
