<svg width="24" height="24" viewBox="0 0 24 24" fill="none" xmlns="http://www.w3.org/2000/svg">
<path d="M6.6001 11.397C6.6001 8.67101 6.6001 7.30801 7.4431 6.46101C8.2871 5.61401 9.6441 5.61401 12.3601 5.61401H15.2401C17.9551 5.61401 19.3131 5.61401 20.1561 6.46101C21.0001 7.30801 21.0001 8.67101 21.0001 11.397V16.217C21.0001 18.943 21.0001 20.306 20.1561 21.153C19.3131 22 17.9551 22 15.2401 22H12.3601C9.6441 22 8.2871 22 7.4431 21.153C6.5991 20.306 6.6001 18.943 6.6001 16.217V11.397Z" fill="#BABABA"/>
<path opacity="0.5" d="M4.172 3.172C3 4.343 3 6.229 3 10V12C3 15.771 3 17.657 4.172 18.828C4.789 19.446 5.605 19.738 6.792 19.876C6.6 19.036 6.6 17.88 6.6 16.216V11.397C6.6 8.671 6.6 7.308 7.443 6.461C8.287 5.614 9.644 5.614 12.36 5.614H15.24C16.892 5.614 18.04 5.614 18.878 5.804C18.74 4.611 18.448 3.792 17.828 3.172C16.657 2 14.771 2 11 2C7.229 2 5.343 2 4.172 3.172Z" fill="#BABABA"/>
</svg>
