<svg width="24" height="24" viewBox="0 0 24 24" fill="none" xmlns="http://www.w3.org/2000/svg">
<path opacity="0.5" d="M22 12C22 17.523 17.523 22 12 22C6.477 22 2 17.523 2 12C2 6.477 6.477 2 12 2C17.523 2 22 6.477 22 12Z" fill="white"/>
<path d="M12 7.75004C11.379 7.75004 10.875 8.25404 10.875 8.87504C10.875 9.07395 10.796 9.26472 10.6553 9.40537C10.5147 9.54602 10.3239 9.62504 10.125 9.62504C9.92609 9.62504 9.73532 9.54602 9.59467 9.40537C9.45402 9.26472 9.375 9.07395 9.375 8.87504C9.37501 8.44498 9.48069 8.0215 9.68274 7.64186C9.88479 7.26222 10.177 6.93803 10.5337 6.69781C10.8905 6.45758 11.3007 6.30868 11.7285 6.2642C12.1562 6.21972 12.5884 6.28102 12.9869 6.4427C13.3854 6.60439 13.7381 6.86151 14.0139 7.19146C14.2898 7.5214 14.4803 7.91407 14.5688 8.33493C14.6573 8.75579 14.6411 9.19194 14.5215 9.60505C14.4019 10.0181 14.1826 10.3955 13.883 10.704C13.791 10.7987 13.703 10.8877 13.619 10.971C13.4165 11.1651 13.2258 11.3711 13.048 11.588C12.828 11.87 12.75 12.077 12.75 12.25V13C12.75 13.199 12.671 13.3897 12.5303 13.5304C12.3897 13.671 12.1989 13.75 12 13.75C11.8011 13.75 11.6103 13.671 11.4697 13.5304C11.329 13.3897 11.25 13.199 11.25 13V12.25C11.25 11.595 11.555 11.064 11.864 10.667C12.093 10.373 12.38 10.087 12.614 9.85304C12.6847 9.78304 12.749 9.71837 12.807 9.65904C12.9611 9.50044 13.0651 9.29994 13.1059 9.08259C13.1467 8.86524 13.1225 8.64069 13.0364 8.437C12.9503 8.2333 12.8061 8.05951 12.6217 7.93733C12.4374 7.81515 12.2211 7.75 12 7.75004ZM12 17C12.2652 17 12.5196 16.8947 12.7071 16.7071C12.8946 16.5196 13 16.2653 13 16C13 15.7348 12.8946 15.4805 12.7071 15.2929C12.5196 15.1054 12.2652 15 12 15C11.7348 15 11.4804 15.1054 11.2929 15.2929C11.1054 15.4805 11 15.7348 11 16C11 16.2653 11.1054 16.5196 11.2929 16.7071C11.4804 16.8947 11.7348 17 12 17Z" fill="white"/>
</svg>
